<svg width="27" height="28" viewBox="0 0 27 28" fill="none" xmlns="http://www.w3.org/2000/svg">
<path d="M18.8335 3.00684H7.91845C4.90435 3.00684 2.46094 5.45025 2.46094 8.46435V19.3794C2.46094 22.3935 4.90435 24.8369 7.91845 24.8369H18.8335C21.8476 24.8369 24.291 22.3935 24.291 19.3794V8.46435C24.291 5.45025 21.8476 3.00684 18.8335 3.00684Z" stroke="white" stroke-width="2.27033" stroke-linecap="round" stroke-linejoin="round"/>
<path d="M17.7414 13.2339C17.8762 14.1423 17.721 15.07 17.298 15.8852C16.8751 16.7003 16.2059 17.3613 15.3856 17.7742C14.5653 18.1871 13.6357 18.3308 12.729 18.1849C11.8224 18.039 10.9848 17.6109 10.3354 16.9616C9.68606 16.3122 9.25799 15.4746 9.1121 14.5679C8.9662 13.6613 9.10991 12.7317 9.52278 11.9114C9.93566 11.0911 10.5967 10.4219 11.4118 9.99894C12.2269 9.57599 13.1547 9.42083 14.0631 9.55553C14.9897 9.69293 15.8475 10.1247 16.5099 10.7871C17.1723 11.4495 17.604 12.3073 17.7414 13.2339Z" stroke="white" stroke-width="2.27033" stroke-linecap="round" stroke-linejoin="round"/>
<path d="M19.3789 7.91846H19.3912" stroke="white" stroke-width="2.27033" stroke-linecap="round" stroke-linejoin="round"/>
</svg>
