<svg width="28" height="28" viewBox="0 0 28 28" fill="none" xmlns="http://www.w3.org/2000/svg">
<g clip-path="url(#clip0)">
<path d="M14.2368 22.1997C18.0265 22.1997 16.6752 19.8006 16.9677 19.1107C16.9634 18.5956 16.959 18.1 16.9764 17.7988C17.2166 17.8664 17.7831 18.1535 18.9532 19.2908C20.7596 21.1137 21.2213 22.1997 22.6806 22.1997H25.3668C26.2182 22.1997 26.6614 21.8471 26.8829 21.5513C27.0969 21.2654 27.3064 20.7633 27.0772 19.9818C26.478 18.1 22.983 14.8506 22.7658 14.5079C22.7985 14.4446 22.8509 14.3605 22.8782 14.3169H22.876C23.5659 13.4055 26.1986 9.46076 26.586 7.88245C26.5871 7.88027 26.5882 7.87699 26.5882 7.87372C26.7978 7.15332 26.6057 6.68616 26.407 6.42202C26.108 6.02689 25.6321 5.82715 24.9892 5.82715H22.303C21.4036 5.82715 20.7214 6.28012 20.3765 7.10639C19.7991 8.57446 18.1771 11.5936 16.9612 12.6621C16.9241 11.1482 16.9492 9.99232 16.9688 9.13331C17.0081 7.45785 17.1347 5.82715 15.396 5.82715H11.174C10.0847 5.82715 9.04231 7.01689 10.1709 8.42929C11.1576 9.66706 10.5257 10.3569 10.7385 13.7908C9.90897 12.9012 8.43325 10.4988 7.38978 7.42838C7.09725 6.59775 6.6541 5.82824 5.40651 5.82824H2.72032C1.631 5.82824 0.980469 6.42202 0.980469 7.41638C0.980469 9.64959 5.92389 22.1997 14.2368 22.1997ZM5.40651 7.46549C5.64337 7.46549 5.66738 7.46549 5.84312 7.96431C6.9117 11.1111 9.30864 15.7675 11.0594 15.7675C12.3747 15.7675 12.3747 14.4195 12.3747 13.9119L12.3736 9.87117C12.3015 8.53408 11.8147 7.86826 11.4949 7.4644L15.3239 7.46877C15.3261 7.48733 15.3021 11.9385 15.3348 13.0169C15.3348 14.5483 16.5508 15.4258 18.4489 13.5048C20.4518 11.2443 21.8369 7.86499 21.8926 7.72746C21.9744 7.53099 22.0454 7.4644 22.303 7.4644H24.9892H25.0001C24.999 7.46768 24.999 7.47095 24.9979 7.47423C24.7523 8.62031 22.3281 12.2725 21.5171 13.4065C21.504 13.424 21.492 13.4426 21.48 13.4611C21.1231 14.044 20.8327 14.688 21.5291 15.5939H21.5302C21.5935 15.6703 21.7583 15.8493 21.9985 16.0982C22.745 16.8688 25.3057 19.5037 25.5327 20.5515C25.3821 20.5755 25.2184 20.5581 22.6806 20.5635C22.1404 20.5635 21.7179 19.7558 20.1058 18.1295C18.6563 16.7193 17.7154 16.1429 16.8586 16.1429C15.1951 16.1429 15.3163 17.4931 15.3316 19.126C15.337 20.8964 15.3261 20.3365 15.3381 20.4478C15.241 20.486 14.9626 20.5624 14.2368 20.5624C7.31119 20.5624 2.8011 9.56991 2.62755 7.46877C2.68758 7.46331 3.51385 7.46659 5.40651 7.46549Z" fill="white"/>
</g>
<defs>
<clipPath id="clip0">
<rect width="26.1961" height="26.1961" fill="white" transform="translate(0.980469 0.915039)"/>
</clipPath>
</defs>
</svg>
