<svg width="23" height="24" viewBox="0 0 23 24" fill="none" xmlns="http://www.w3.org/2000/svg">
<g clip-path="url(#clip0)">
<path d="M11.2384 0.803507C9.44077 0.825207 5.57607 1.12061 3.41447 3.10371C1.80657 4.69691 1.24517 7.05241 1.17937 9.96511C1.12477 12.8673 1.05897 18.3175 6.31247 19.8015V22.0618C6.31247 22.0618 6.27957 22.9662 6.87737 23.1517C7.61377 23.3848 8.03307 22.689 8.73307 21.9414L10.0386 20.4651C13.6331 20.764 16.3862 20.0752 16.7033 19.973C17.4327 19.7399 21.541 19.2149 22.2123 13.764C22.9011 8.13461 21.877 4.58771 20.0283 2.98331H20.0171C19.4592 2.46951 17.2171 0.835707 12.2079 0.817507C12.2079 0.817507 11.8362 0.792307 11.2384 0.802807V0.803507ZM11.3 2.38621C11.8103 2.38271 12.1204 2.40441 12.1204 2.40441C16.3603 2.41561 18.384 3.69171 18.8614 4.12151C20.4182 5.45571 21.2204 8.65331 20.6331 13.3531C20.0752 17.9101 16.7432 18.1985 16.1265 18.3952C15.864 18.4792 13.4392 19.077 10.3844 18.8803C10.3844 18.8803 8.10937 21.6257 7.39817 22.3327C7.28547 22.4566 7.15387 22.493 7.06987 22.4748C6.94947 22.4454 6.91307 22.2963 6.92007 22.0919L6.94177 18.3406C2.48627 17.1086 2.74877 12.4599 2.79637 10.0316C2.85097 7.60331 3.30667 5.61671 4.66327 4.27131C6.48957 2.62001 9.77117 2.39741 11.2986 2.38621H11.3ZM11.636 4.81381C11.5993 4.81344 11.5629 4.82033 11.5289 4.83409C11.4949 4.84784 11.464 4.86819 11.4379 4.89396C11.4118 4.91973 11.3911 4.9504 11.3769 4.98422C11.3627 5.01804 11.3554 5.05433 11.3553 5.09101C11.3553 5.24781 11.4827 5.37171 11.636 5.37171C12.33 5.35851 13.0198 5.48284 13.6656 5.73754C14.3114 5.99225 14.9003 6.37227 15.3985 6.85571C16.4156 7.84341 16.9112 9.17061 16.9301 10.9059C16.9301 11.0592 17.054 11.1866 17.2108 11.1866V11.1754C17.2847 11.1756 17.3556 11.1466 17.4082 11.0946C17.4608 11.0427 17.4907 10.9721 17.4915 10.8982C17.5255 10.0814 17.393 9.26623 17.1022 8.50222C16.8113 7.73821 16.3681 7.04132 15.7996 6.45391C14.6915 5.37101 13.2873 4.81311 11.636 4.81311V4.81381ZM7.94627 5.45571C7.74814 5.42676 7.54606 5.46653 7.37367 5.56841H7.35897C6.95876 5.803 6.59822 6.09951 6.29077 6.44691C6.03527 6.74231 5.89667 7.04121 5.86027 7.32891C5.83857 7.50041 5.85327 7.67191 5.90437 7.83571L5.92257 7.84691C6.21027 8.69251 6.58617 9.50591 7.04537 10.2717C7.63689 11.3476 8.36484 12.3426 9.21117 13.232L9.23637 13.2684L9.27627 13.2978L9.30147 13.3272L9.33087 13.3524C10.2235 14.2012 11.2209 14.9326 12.2989 15.5287C13.5309 16.1993 14.2785 16.5164 14.7272 16.648V16.655C14.8588 16.6949 14.9785 16.7131 15.0989 16.7131C15.4813 16.6851 15.8433 16.5298 16.1272 16.2721C16.473 15.9646 16.7662 15.6026 16.9952 15.2004V15.1934C17.2101 14.7888 17.1373 14.4059 16.8272 14.1469C16.2061 13.6041 15.5346 13.1219 14.8217 12.707C14.3443 12.448 13.8592 12.6048 13.6625 12.8673L13.2432 13.3958C13.0283 13.6583 12.6377 13.6219 12.6377 13.6219L12.6265 13.6289C9.71377 12.8848 8.93677 9.93571 8.93677 9.93571C8.93677 9.93571 8.90037 9.53461 9.16987 9.33021L9.69487 8.90741C9.94617 8.70301 10.1212 8.21861 9.85167 7.74051C9.43965 7.02661 8.95854 6.35489 8.41527 5.73501C8.2965 5.58887 8.12988 5.48944 7.94487 5.45431L7.94627 5.45571ZM12.1204 6.28731C11.7487 6.28731 11.7487 6.84871 12.1239 6.84871C12.5861 6.8562 13.0423 6.95471 13.4664 7.1386C13.8905 7.32249 14.2742 7.58815 14.5956 7.92041C14.8887 8.24381 15.114 8.62277 15.2581 9.03484C15.4021 9.4469 15.462 9.88368 15.4342 10.3193C15.4355 10.393 15.4655 10.4633 15.518 10.5151C15.5705 10.5669 15.6411 10.5962 15.7149 10.5965L15.7261 10.6112C15.8003 10.6107 15.8714 10.5809 15.9239 10.5284C15.9765 10.4759 16.0062 10.4048 16.0068 10.3305C16.032 9.21821 15.6862 8.28511 15.0079 7.53751C14.3261 6.78991 13.3748 6.37061 12.1603 6.28731H12.1204ZM12.5803 7.79651C12.1974 7.78531 12.1827 8.35791 12.5621 8.36911C13.4847 8.41671 13.9327 8.88291 13.9915 9.84191C13.9928 9.9147 14.0225 9.9841 14.0743 10.0353C14.1261 10.0864 14.1959 10.1153 14.2687 10.1156H14.2799C14.3173 10.114 14.354 10.105 14.3879 10.089C14.4218 10.073 14.4522 10.0505 14.4773 10.0227C14.5024 9.99485 14.5217 9.9623 14.5341 9.92694C14.5464 9.89158 14.5516 9.8541 14.5494 9.81671C14.4836 8.56651 13.8018 7.86231 12.5915 7.79721H12.5803V7.79651Z" fill="#864CB2"/>
</g>
<defs>
<clipPath id="clip0">
<rect width="22.4" height="22.4" fill="white" transform="translate(0.599609 0.799988)"/>
</clipPath>
</defs>
</svg>
