<svg width="26" height="26" viewBox="0 0 26 26" fill="none" xmlns="http://www.w3.org/2000/svg">
<g clip-path="url(#clip0)">
<path d="M6.76531 22.1254L7.18381 22.3322C8.92781 23.3664 10.8809 23.8491 12.8341 23.8491C18.9726 23.8491 23.995 18.8848 23.995 12.8174C23.995 9.92167 22.8091 7.0948 20.7165 5.02634C18.6238 2.95788 15.8335 1.78581 12.8341 1.78581C6.69561 1.78581 1.67311 6.75004 1.74291 12.8864C1.74291 14.9548 2.37071 16.9544 3.41701 18.678L3.69601 19.0917L2.58001 23.1596L6.76531 22.1254Z" fill="#00E676"/>
<path d="M21.9033 3.92318C19.5316 1.51006 16.2531 0.200012 12.9048 0.200012C5.7898 0.200012 0.0698 5.92265 0.1395 12.8863C0.1395 15.0927 0.7673 17.2301 1.8137 19.1606L0 25.7107L6.7663 23.987C8.6497 25.0212 10.7423 25.5039 12.8351 25.5039C19.8804 25.5039 25.6004 19.7811 25.6004 12.8175C25.6004 9.43904 24.275 6.26741 21.9034 3.92318H21.9033ZM12.9048 23.3665C11.0214 23.3665 9.138 22.884 7.5336 21.9187L7.1151 21.7118L3.0693 22.746L4.1156 18.8161L3.8366 18.4023C0.7673 13.5071 2.2322 7.02582 7.2546 3.99207C12.277 0.958425 18.7643 2.40636 21.8336 7.37058C24.9028 12.3348 23.4379 18.747 18.4156 21.7807C16.8111 22.8149 14.858 23.3664 12.9048 23.3664V23.3665ZM19.0433 15.7134L18.276 15.3687C18.276 15.3687 17.16 14.886 16.4624 14.5413C16.3926 14.5413 16.3229 14.4723 16.2531 14.4723C16.0438 14.4723 15.9043 14.5413 15.7648 14.6102C15.7648 14.6102 15.6951 14.6791 14.7185 15.7823C14.6487 15.9202 14.5092 15.9892 14.3697 15.9892H14.2999C14.2302 15.9892 14.0907 15.9202 14.0209 15.8513L13.6721 15.7134C12.9048 15.3687 12.2073 14.9549 11.6492 14.4034C11.5097 14.2655 11.3004 14.1276 11.1609 13.9897C10.6726 13.5071 10.1843 12.9554 9.8356 12.3349L9.7658 12.197C9.6961 12.128 9.6961 12.0591 9.6263 11.9213C9.6263 11.7834 9.6263 11.6455 9.6961 11.5765C9.6961 11.5765 9.9751 11.2317 10.1843 11.025C10.3239 10.887 10.3936 10.6802 10.5331 10.5423C10.6726 10.3354 10.7424 10.0597 10.6726 9.85279C10.6029 9.50803 9.7658 7.64645 9.5566 7.2328C9.417 7.02592 9.2776 6.95703 9.0683 6.88804H8.301C8.1614 6.88804 8.022 6.95703 7.8824 6.95703L7.8126 7.02592C7.6731 7.09491 7.5336 7.2328 7.3941 7.30169C7.2546 7.43967 7.1848 7.57746 7.0453 7.71544C6.557 8.33597 6.278 9.09438 6.278 9.85279C6.278 10.4043 6.4175 10.956 6.6268 11.4386L6.6966 11.6455C7.3244 12.9554 8.1614 14.1276 9.2776 15.1618L9.5566 15.4375C9.7658 15.6444 9.9751 15.7823 10.1146 15.9891C11.5795 17.2302 13.2536 18.1265 15.137 18.6092C15.3463 18.6781 15.6253 18.6781 15.8346 18.7471H16.5321C16.8809 18.7471 17.2994 18.6092 17.5785 18.4713C17.7877 18.3334 17.9272 18.3334 18.0667 18.1955L18.2063 18.0575C18.3458 17.9197 18.4853 17.8508 18.6248 17.7129C18.7643 17.575 18.9038 17.4371 18.9736 17.2991C19.1131 17.0234 19.1828 16.6786 19.2526 16.3339V15.8513C19.2526 15.8513 19.1828 15.7823 19.0433 15.7134Z" fill="white"/>
</g>
<defs>
<clipPath id="clip0">
<rect width="25.6" height="25.6" fill="white" transform="translate(0 0.200012)"/>
</clipPath>
</defs>
</svg>
