<svg width="30" height="30" viewBox="0 0 30 30" fill="none" xmlns="http://www.w3.org/2000/svg">
<path d="M27.8601 21.6501V25.4001C27.8616 25.7482 27.7902 26.0928 27.6508 26.4118C27.5113 26.7308 27.3068 27.0171 27.0502 27.2525C26.7937 27.4878 26.4909 27.667 26.1611 27.7785C25.8313 27.89 25.4819 27.9315 25.1351 27.9001C21.2887 27.4822 17.5939 26.1678 14.3476 24.0626C11.3274 22.1435 8.76682 19.5828 6.84765 16.5626C4.73512 13.3016 3.42045 9.58886 3.01015 5.72512C2.97891 5.37945 3.01999 5.03107 3.13077 4.70215C3.24155 4.37323 3.41961 4.07098 3.6536 3.81465C3.8876 3.55831 4.1724 3.35351 4.48988 3.21327C4.80737 3.07304 5.15057 3.00045 5.49765 3.00012H9.24765C9.85428 2.99415 10.4424 3.20897 10.9023 3.60454C11.3623 4.0001 11.6627 4.54943 11.7476 5.15012C11.9059 6.3502 12.1995 7.52853 12.6226 8.66262C12.7908 9.11003 12.8272 9.59626 12.7275 10.0637C12.6278 10.5312 12.3962 10.9603 12.0601 11.3001L10.4726 12.8876C12.2521 16.0171 14.8432 18.6082 17.9726 20.3876L19.5601 18.8001C19.9 18.464 20.3291 18.2324 20.7965 18.1327C21.264 18.033 21.7502 18.0694 22.1976 18.2376C23.3317 18.6608 24.5101 18.9543 25.7101 19.1126C26.3174 19.1983 26.8719 19.5041 27.2683 19.972C27.6647 20.4399 27.8754 21.0371 27.8601 21.6501Z" stroke="black" stroke-width="2.5" stroke-linecap="round" stroke-linejoin="round"/>
</svg>
