<svg width="15" height="15" viewBox="0 0 15 15" fill="none" xmlns="http://www.w3.org/2000/svg">
<g clip-path="url(#clip0)">
<path d="M13.7049 10.7084V12.5176C13.7055 12.6856 13.6711 12.8518 13.6039 13.0057C13.5366 13.1596 13.4379 13.2977 13.3141 13.4113C13.1904 13.5248 13.0442 13.6113 12.8851 13.6651C12.726 13.7189 12.5575 13.7389 12.3902 13.7237C10.5344 13.5221 8.75185 12.888 7.18568 11.8723C5.72856 10.9464 4.49317 9.71102 3.56726 8.2539C2.54806 6.68061 1.91379 4.88936 1.71583 3.02528C1.70076 2.85851 1.72058 2.69043 1.77403 2.53174C1.82748 2.37305 1.91338 2.22723 2.02627 2.10356C2.13916 1.97989 2.27657 1.88108 2.42974 1.81342C2.58291 1.74576 2.74849 1.71074 2.91594 1.71058H4.72515C5.01783 1.7077 5.30156 1.81134 5.52347 2.00219C5.74539 2.19303 5.89033 2.45806 5.93129 2.74786C6.00766 3.32685 6.14927 3.89534 6.35344 4.44249C6.43458 4.65835 6.45214 4.89293 6.40404 5.11846C6.35595 5.34399 6.2442 5.551 6.08206 5.71497L5.31616 6.48087C6.17467 7.99068 7.42477 9.24079 8.93458 10.0993L9.70048 9.33339C9.86445 9.17125 10.0715 9.05951 10.297 9.01141C10.5225 8.96331 10.7571 8.98087 10.973 9.06201C11.5201 9.26618 12.0886 9.4078 12.6676 9.48416C12.9605 9.52549 13.2281 9.67304 13.4193 9.89877C13.6106 10.1245 13.7122 10.4126 13.7049 10.7084Z" stroke="white" stroke-width="1.20614" stroke-linecap="round" stroke-linejoin="round"/>
</g>
<defs>
<clipPath id="clip0">
<rect width="14.4737" height="14.4737" fill="white" transform="translate(0.263672 0.263153)"/>
</clipPath>
</defs>
</svg>
