<svg width="21" height="21" viewBox="0 0 21 21" fill="none" xmlns="http://www.w3.org/2000/svg">
<path d="M10.4909 2.27631C5.95138 2.27631 2.27539 5.96052 2.27539 10.5C2.27539 15.0395 5.95138 18.7237 10.4909 18.7237C15.0385 18.7237 18.7228 15.0395 18.7228 10.5C18.7228 5.96052 15.0385 2.27631 10.4909 2.27631ZM10.4991 17.0789C6.86421 17.0789 3.92013 14.1349 3.92013 10.5C3.92013 6.86512 6.86421 3.92104 10.4991 3.92104C14.1339 3.92104 17.078 6.86512 17.078 10.5C17.078 14.1349 14.1339 17.0789 10.4991 17.0789ZM10.9103 6.38815H9.67671V11.3224L13.9941 13.9128L14.6109 12.9013L10.9103 10.7056V6.38815Z" fill="white"/>
</svg>
