<svg width="84" height="84" viewBox="0 0 84 84" fill="none" xmlns="http://www.w3.org/2000/svg">
<path d="M21 40.6235V63.0002H43.3767L38.71 58.3335H25.6667V45.2902L21 40.6235Z" fill="black"/>
<path d="M81.3627 75.3433L74.6661 68.5533V74.6666H9.33272V64.9833H13.9994V61.2499H9.33272V45.7333H13.9994V41.9999H9.33272V27.0666H13.9994V23.3333H9.33272V10.2899L46.5261 47.2733V40.6933L8.65606 3.00994C8.32969 2.68087 7.91272 2.45645 7.45831 2.36529C7.0039 2.27412 6.53263 2.32035 6.1046 2.49807C5.67656 2.6758 5.31115 2.97696 5.05495 3.36317C4.79874 3.74939 4.66336 4.20315 4.66606 4.66661V76.9999C4.66606 77.6188 4.91189 78.2123 5.34947 78.6499C5.78706 79.0874 6.38055 79.3333 6.99939 79.3333H79.7061C80.1695 79.336 80.6233 79.2006 81.0095 78.9444C81.3957 78.6882 81.6969 78.3228 81.8746 77.8947C82.0523 77.4667 82.0985 76.9954 82.0074 76.541C81.9162 76.0866 81.6918 75.6696 81.3627 75.3433Z" fill="black"/>
<path d="M56.0007 69.9999H65.334C66.5717 69.9999 67.7586 69.5082 68.6338 68.633C69.509 67.7579 70.0007 66.5709 70.0007 65.3332V20.2999L64.634 10.4299C64.2189 9.71077 63.6195 9.11544 62.8977 8.70527C62.1758 8.29511 61.3575 8.08497 60.5273 8.09652C59.6783 8.10326 58.8472 8.34148 58.1236 8.78554C57.4 9.22959 56.8112 9.86264 56.4207 10.6165L51.334 20.3465V65.3332C51.334 66.5709 51.8257 67.7579 52.7008 68.633C53.576 69.5082 54.763 69.9999 56.0007 69.9999ZM56.0007 21.4665L60.5273 12.6699L65.334 21.4899V55.9999H56.0007V21.4665ZM56.0007 59.8032H65.334V65.4965H56.0007V59.8032Z" fill="black"/>
</svg>
