<svg width="93" height="93" viewBox="0 0 93 93" fill="none" xmlns="http://www.w3.org/2000/svg">
<path d="M46.5 5.8125L11.625 17.4375V52.3125C11.625 71.5755 27.237 87.1875 46.5 87.1875C65.763 87.1875 81.375 71.5755 81.375 52.3125V17.4375L46.5 5.8125ZM74.8359 52.3125C74.8359 67.9608 62.1483 80.6484 46.5 80.6484C30.8517 80.6484 18.1641 67.9608 18.1641 52.3125V22.3418L46.5 12.3516L74.8359 22.3418V52.3125Z" fill="black"/>
<path d="M34.3625 43.1487C34.0595 42.8443 33.6993 42.6028 33.3027 42.4379C32.906 42.2731 32.4807 42.1882 32.0512 42.1882C31.6216 42.1882 31.1963 42.2731 30.7997 42.4379C30.403 42.6028 30.0428 42.8443 29.7398 43.1487C29.4354 43.4518 29.1938 43.812 29.029 44.2086C28.8641 44.6053 28.7793 45.0306 28.7793 45.4601C28.7793 45.8896 28.8641 46.315 29.029 46.7116C29.1938 47.1083 29.4354 47.4685 29.7398 47.7715L41.4919 59.5236L41.6827 59.7144C41.9693 60.0015 42.3098 60.2294 42.6846 60.3848C43.0594 60.5403 43.4611 60.6203 43.8669 60.6203C44.2726 60.6203 44.6744 60.5403 45.0492 60.3848C45.424 60.2294 45.7645 60.0015 46.0511 59.7144L66.3495 39.416C66.6366 39.1294 66.8645 38.7889 67.0199 38.4141C67.1754 38.0393 67.2554 37.6375 67.2554 37.2318C67.2554 36.826 67.1754 36.4243 67.0199 36.0495C66.8645 35.6747 66.6366 35.3342 66.3495 35.0476L66.0952 34.7933C65.8085 34.5061 65.4681 34.2782 65.0933 34.1228C64.7185 33.9673 64.3167 33.8873 63.9109 33.8873C63.5052 33.8873 63.1034 33.9673 62.7286 34.1228C62.3538 34.2782 62.0133 34.5061 61.7267 34.7933L43.8623 52.6485L34.3625 43.1487Z" fill="black"/>
</svg>
