<svg width="85" height="85" viewBox="0 0 85 85" fill="none" xmlns="http://www.w3.org/2000/svg">
<path d="M78.3107 22.9072L51.7482 8.29779C51.356 8.08202 50.9156 7.96887 50.4679 7.96887C50.0203 7.96887 49.5798 8.08202 49.1876 8.29779L22.6251 22.9072C22.2086 23.1365 21.8614 23.4733 21.6195 23.8826C21.3776 24.2919 21.25 24.7586 21.25 25.234C21.25 25.7095 21.3776 26.1762 21.6195 26.5855C21.8614 26.9947 22.2086 27.3316 22.6251 27.5609L47.8117 41.4133V69.8856L39.7473 65.4497L37.1867 70.1007L49.1876 76.7015C49.5797 76.9178 50.0202 77.0312 50.4679 77.0312C50.9157 77.0312 51.3562 76.9178 51.7482 76.7015L78.3107 62.0922C78.7274 61.863 79.0748 61.5261 79.3168 61.1168C79.5589 60.7075 79.6866 60.2408 79.6867 59.7653V25.234C79.6866 24.7585 79.5589 24.2918 79.3168 23.8825C79.0748 23.4732 78.7274 23.1364 78.3107 22.9072ZM50.4679 13.6581L71.5187 25.234L50.4679 36.81L29.4171 25.234L50.4679 13.6581ZM74.3742 58.1954L53.1242 69.8829V41.4106L74.3742 29.7231V58.1954Z" fill="black"/>
<path d="M26.5625 42.5H5.3125V37.1875H26.5625V42.5Z" fill="black"/>
<path d="M31.875 63.75H10.625V58.4375H31.875V63.75Z" fill="black"/>
<path d="M37.1875 53.125H15.9375V47.8125H37.1875V53.125Z" fill="black"/>
</svg>
