<svg width="77" height="77" viewBox="0 0 77 77" fill="none" xmlns="http://www.w3.org/2000/svg">
<path d="M50.5312 48.125C49.8931 48.125 49.281 48.3785 48.8298 48.8298C48.3785 49.281 48.125 49.8931 48.125 50.5312C48.125 51.1694 48.3785 51.7815 48.8298 52.2327C49.281 52.684 49.8931 52.9375 50.5312 52.9375H60.1562C60.7944 52.9375 61.4065 52.684 61.8577 52.2327C62.309 51.7815 62.5625 51.1694 62.5625 50.5312C62.5625 49.8931 62.309 49.281 61.8577 48.8298C61.4065 48.3785 60.7944 48.125 60.1562 48.125H50.5312Z" fill="black"/>
<path d="M4.8125 24.0625C4.8125 21.5098 5.82656 19.0616 7.6316 17.2566C9.43664 15.4516 11.8848 14.4375 14.4375 14.4375H62.5625C65.1152 14.4375 67.5634 15.4516 69.3684 17.2566C71.1734 19.0616 72.1875 21.5098 72.1875 24.0625V52.9375C72.1875 55.4902 71.1734 57.9384 69.3684 59.7434C67.5634 61.5484 65.1152 62.5625 62.5625 62.5625H14.4375C11.8848 62.5625 9.43664 61.5484 7.6316 59.7434C5.82656 57.9384 4.8125 55.4902 4.8125 52.9375V24.0625ZM67.375 24.0625C67.375 22.7861 66.868 21.5621 65.9655 20.6595C65.0629 19.757 63.8389 19.25 62.5625 19.25H14.4375C13.1611 19.25 11.9371 19.757 11.0345 20.6595C10.132 21.5621 9.625 22.7861 9.625 24.0625V28.875H67.375V24.0625ZM9.625 52.9375C9.625 54.2139 10.132 55.4379 11.0345 56.3405C11.9371 57.243 13.1611 57.75 14.4375 57.75H62.5625C63.8389 57.75 65.0629 57.243 65.9655 56.3405C66.868 55.4379 67.375 54.2139 67.375 52.9375V33.6875H9.625V52.9375Z" fill="black"/>
</svg>
