<svg width="66" height="66" viewBox="0 0 66 66" fill="none" xmlns="http://www.w3.org/2000/svg">
<path d="M21.9979 24.2H26.3979H21.9979ZM39.5979 41.8H43.9979H39.5979ZM43.9979 22L21.9979 44L43.9979 22ZM29.9223 3.47598L24.9547 8.43478C24.1406 9.25037 23.0359 9.70933 21.8835 9.71078H14.0603C12.9074 9.71078 11.8016 10.1688 10.9864 10.984C10.1711 11.7993 9.7131 12.905 9.7131 14.058V21.8812C9.71165 23.0336 9.25269 24.1382 8.4371 24.9524L3.4739 29.9288C2.65897 30.744 2.20117 31.8495 2.20117 33.0022C2.20117 34.1549 2.65897 35.2604 3.4739 36.0756L8.4459 41.0432C9.2599 41.8572 9.7175 42.9616 9.7175 44.1144V51.9376C9.7175 54.34 11.6623 56.2848 14.0647 56.2848H21.8879C23.0407 56.2848 24.1451 56.7424 24.9591 57.5608L29.9311 62.5284C30.7463 63.3433 31.8518 63.8011 33.0045 63.8011C34.1572 63.8011 35.2627 63.3433 36.0779 62.5284L41.0455 57.5564C41.8604 56.7424 42.9649 56.2851 44.1167 56.2848H51.9399C53.0929 56.2848 54.1986 55.8268 55.0138 55.0115C55.8291 54.1963 56.2871 53.0905 56.2871 51.9376V44.1144C56.2871 42.9616 56.7447 41.8572 57.5631 41.0432L62.5307 36.0712C63.3456 35.256 63.8034 34.1505 63.8034 32.9978C63.8034 31.8451 63.3456 30.7396 62.5307 29.9244L57.5587 24.9568C56.7447 24.1419 56.2874 23.0373 56.2871 21.8856V14.0624C56.2871 12.9094 55.8291 11.8037 55.0138 10.9884C54.1986 10.1732 53.0929 9.71518 51.9399 9.71518H44.1167C42.9643 9.71373 41.8596 9.25477 41.0455 8.43918L36.0691 3.47598C35.2539 2.66105 34.1484 2.20325 32.9957 2.20325C31.843 2.20325 30.7375 2.66105 29.9223 3.47598V3.47598Z" stroke="black" stroke-width="4"/>
</svg>
