<svg width="51" height="51" viewBox="0 0 51 51" fill="none" xmlns="http://www.w3.org/2000/svg">
<path d="M6.375 25.5H25.5V28.6875H6.375V25.5Z" fill="black"/>
<path d="M3.1875 17.5312H19.125V20.7188H3.1875V17.5312Z" fill="black"/>
<path d="M47.6838 26.4658L42.9026 15.3096C42.7799 15.0228 42.5757 14.7784 42.3153 14.6067C42.0549 14.435 41.7498 14.3436 41.4379 14.3437H36.6567V11.1562C36.6567 10.7336 36.4888 10.3282 36.1899 10.0293C35.891 9.73041 35.4856 9.5625 35.0629 9.5625H9.56294V12.75H33.4692V32.7611C32.743 33.1828 32.1074 33.7441 31.5992 34.4126C31.0909 35.0812 30.7201 35.8437 30.508 36.6562H20.4929C20.105 35.1539 19.1825 33.8446 17.8982 32.9737C16.614 32.1029 15.0563 31.7303 13.517 31.9258C11.9778 32.1213 10.5626 32.8715 9.53693 34.0358C8.51121 35.2 7.94531 36.6984 7.94531 38.25C7.94531 39.8016 8.51121 41.3 9.53693 42.4642C10.5626 43.6285 11.9778 44.3787 13.517 44.5742C15.0563 44.7697 16.614 44.3971 17.8982 43.5263C19.1825 42.6554 20.105 41.3461 20.4929 39.8437H30.508C30.8547 41.2116 31.6476 42.4247 32.7612 43.2913C33.8748 44.1579 35.2456 44.6284 36.6567 44.6284C38.0678 44.6284 39.4385 44.1579 40.5522 43.2913C41.6658 42.4247 42.4587 41.2116 42.8054 39.8437H46.2192C46.6419 39.8437 47.0473 39.6758 47.3461 39.377C47.645 39.0781 47.8129 38.6727 47.8129 38.25V27.0937C47.813 26.8778 47.7691 26.6642 47.6838 26.4658ZM14.3442 41.4375C13.7138 41.4375 13.0975 41.2506 12.5733 40.9003C12.0491 40.5501 11.6406 40.0522 11.3993 39.4698C11.1581 38.8874 11.0949 38.2465 11.2179 37.6281C11.3409 37.0098 11.6445 36.4419 12.0903 35.9961C12.5361 35.5503 13.104 35.2467 13.7223 35.1237C14.3407 35.0008 14.9816 35.0639 15.564 35.3051C16.1464 35.5464 16.6443 35.9549 16.9945 36.4791C17.3447 37.0033 17.5317 37.6196 17.5317 38.25C17.5308 39.0951 17.1948 39.9054 16.5972 40.503C15.9996 41.1006 15.1893 41.4367 14.3442 41.4375ZM36.6567 17.5312H40.3861L43.8031 25.5H36.6567V17.5312ZM36.6567 41.4375C36.0263 41.4375 35.41 41.2506 34.8858 40.9003C34.3616 40.5501 33.9531 40.0522 33.7118 39.4698C33.4706 38.8874 33.4074 38.2465 33.5304 37.6281C33.6534 37.0098 33.957 36.4419 34.4028 35.9961C34.8486 35.5503 35.4165 35.2467 36.0348 35.1237C36.6532 35.0008 37.2941 35.0639 37.8765 35.3051C38.4589 35.5464 38.9568 35.9549 39.307 36.4791C39.6572 37.0033 39.8442 37.6196 39.8442 38.25C39.8433 39.0951 39.5073 39.9054 38.9097 40.503C38.3121 41.1006 37.5018 41.4367 36.6567 41.4375ZM44.6254 36.6562H42.8054C42.4543 35.2911 41.6602 34.081 40.5474 33.2158C39.4347 32.3505 38.0663 31.8789 36.6567 31.875V28.6875H44.6254V36.6562Z" fill="black"/>
</svg>
