<svg width="51" height="51" viewBox="0 0 51 51" fill="none" xmlns="http://www.w3.org/2000/svg">
<path d="M30.2812 15.9375H41.4375V19.125H30.2812V15.9375Z" fill="black"/>
<path d="M30.2812 23.9062H41.4375V27.0938H30.2812V23.9062Z" fill="black"/>
<path d="M30.2812 31.875H41.4375V35.0625H30.2812V31.875Z" fill="black"/>
<path d="M44.625 7.96875H6.375C5.52988 7.96959 4.71962 8.30569 4.12203 8.90328C3.52444 9.50087 3.18834 10.3111 3.1875 11.1562V39.8438C3.18834 40.6889 3.52444 41.4991 4.12203 42.0967C4.71962 42.6943 5.52988 43.0304 6.375 43.0312H44.625C45.47 43.03 46.28 42.6938 46.8775 42.0963C47.475 41.4988 47.8112 40.6887 47.8125 39.8438V11.1562C47.8117 10.3111 47.4756 9.50087 46.878 8.90328C46.2804 8.30569 45.4701 7.96959 44.625 7.96875ZM6.375 11.1562H23.9062V39.8438H6.375V11.1562ZM27.0938 39.8438V11.1562H44.625L44.6282 39.8438H27.0938Z" fill="black"/>
</svg>
