<svg width="43" height="43" viewBox="0 0 43 43" fill="none" xmlns="http://www.w3.org/2000/svg">
<path d="M10.75 3.58334L5.375 10.75V35.8333C5.375 36.7837 5.75253 37.6951 6.42453 38.3671C7.09654 39.0392 8.00797 39.4167 8.95833 39.4167H34.0417C34.992 39.4167 35.9035 39.0392 36.5755 38.3671C37.2475 37.6951 37.625 36.7837 37.625 35.8333V10.75L32.25 3.58334H10.75Z" stroke="black" stroke-width="3" stroke-linecap="round" stroke-linejoin="round"/>
<path d="M5.375 10.75H37.625" stroke="black" stroke-width="3" stroke-linecap="round" stroke-linejoin="round"/>
<path d="M28.6654 17.9167C28.6654 19.8174 27.9103 21.6402 26.5663 22.9843C25.2223 24.3283 23.3994 25.0833 21.4987 25.0833C19.598 25.0833 17.7751 24.3283 16.4311 22.9843C15.0871 21.6402 14.332 19.8174 14.332 17.9167" stroke="black" stroke-width="3" stroke-linecap="round" stroke-linejoin="round"/>
</svg>
